<svg width="28" height="28" viewBox="0 0 28 28" fill="none" xmlns="http://www.w3.org/2000/svg">
<g clip-path="url(#clip0_37_14)">
<path d="M18.2 23.8C18.1916 24.1729 18.2577 24.5437 18.3946 24.8906C18.5314 25.2376 18.7362 25.5537 18.9969 25.8204C19.2576 26.0872 19.5689 26.2991 19.9127 26.4439C20.2564 26.5886 20.6256 26.6632 20.9986 26.6633C21.3716 26.6634 21.7408 26.589 22.0846 26.4444C22.4284 26.2998 22.7399 26.088 23.0007 25.8214C23.2615 25.5548 23.4665 25.2388 23.6035 24.8919C23.7405 24.545 23.8068 24.1743 23.7986 23.8014C23.7824 23.0698 23.4805 22.3736 22.9574 21.8619C22.4344 21.3501 21.7318 21.0635 21 21.0633C20.2682 21.0631 19.5655 21.3494 19.0421 21.8609C18.5188 22.3724 18.2165 23.0684 18.2 23.8ZM4.2 23.8C4.2 24.5426 4.495 25.2548 5.0201 25.7799C5.5452 26.305 6.25739 26.6 7 26.6C7.74261 26.6 8.4548 26.305 8.9799 25.7799C9.505 25.2548 9.8 24.5426 9.8 23.8C9.8 23.0574 9.505 22.3452 8.9799 21.8201C8.4548 21.295 7.74261 21 7 21C6.25739 21 5.5452 21.295 5.0201 21.8201C4.495 22.3452 4.2 23.0574 4.2 23.8ZM9.1658 17.0408L24.661 12.614C24.8125 12.5635 24.9451 12.4682 25.0414 12.3407C25.1376 12.2132 25.1929 12.0596 25.2 11.9V4.19999H5.6V1.95999C5.6 1.65199 5.3466 1.39999 5.0414 1.39999H0.5586C0.410435 1.40073 0.26857 1.46001 0.163932 1.56491C0.0592937 1.66981 0.000367652 1.81183 0 1.95999L0 4.19999H2.8L5.474 16.7398L5.6 18.06V20.3686C5.6 20.6752 5.852 20.9286 6.16 20.9286H24.64C24.948 20.9286 25.2 20.6738 25.2 20.3686V18.2H9.4528C7.8428 18.2 7.8092 17.4286 9.1658 17.0408Z" fill="black"/>
</g>
<defs>
<clipPath id="clip0_37_14">
<rect width="28" height="28" fill="white"/>
</clipPath>
</defs>
</svg>
